<svg id="Graphic_Elements" data-name="Graphic Elements" xmlns="http://www.w3.org/2000/svg" viewBox="0 0 1200 800"><title>1</title><g id="layer1"><g id="g3309"><g id="g3239"><path id="path3233" d="M438.79,283.55c1.63-6.38,12-23.19,15-28.91,4.33-8.17,5.82-14.21,10.79-23.58,3.15-5.93,2.75-18.53,1.32-25.85a84.82,84.82,0,0,0-7-22l-11-23.43c-4.07-8.67-8.37-12.67-15.22-18.07a36.23,36.23,0,0,0-22.28-8,57.28,57.28,0,0,0-26,5.5c-9.08,4.26-10.47,10-18.73,13.84-4.56,2.14-7.71,9.78-10.54,13.37-4.87,6.16-4.26,9.9-13.78,6.47-8.65-3.12-16.38-.17-24.55,1.44-7.86,1.55-9,9.19-10.54,13.37-2.26,6.25,1.09,13.19,2.9,20.5,1.75,7.1,5.34,14.94,8.33,21.32,4.12,8.76,5.46,9.61,11.18,16.61s14.46,11.41,18.71,14.76c4.85,3.83,12,11.84,16.59,17.43s15.83,10.47,21.47,13.47c9.81,5.2,24.9,9.39,33,13.06,7,3.14,15.29-7.47,16.62-11.17.35-.95,1.84-.86,2.76-1.29C440.58,291.13,438.49,286.5,438.79,283.55Z" style="fill:#d40000;fill-rule:evenodd"/><path id="path3235" d="M375.1,549c3.34-1.57,10.41-35.71,10.65-45.37.45-18.73,3.32-37.77,9.51-54.94,5.42-15,5.13-28.51,8.54-42.69,2.36-9.85-2.05-23.81-3.95-33.47-2-10.07-5.05-17.9-9.55-27.48-4.23-9-9.18-14.16-15.14-21.48s-14.29-11.27-21.38-16.86c-7.26-5.73-13.81-9.27-22.11-14.85-10.34-6.93-21.41-8.86-33.05-13.06-15.66-5.65-32.34-4.18-47.65-1.17-14,2.76-26.44,6.34-41.09,9.22-15.84,3.11-20,10.95-20.35,24.7-.24,9.55-.51,14.63,1.44,24.55,1.66,8.43,5.87,16.07,9.63,24.07,4,8.61,5.1,13.93,4.93,21.24-.26,10.33-16.7,5.26-22.53,2.17-17.55-9.32-33.29-13.07-53.47-13.56-11.17-.27-22.73,7.31-33,12.13-4.28,2-11.48,15.79-14.84,22.12-4.75,8.94-9.16,14.64-7.39,23.65,1.84,9.34,5,17.8,9.55,27.48l17.47,37.2c4.2,8.92,12,20.77,19.11,26.34,8.67,6.84,13.56,16.34,24.7,20.36,11.61,4.18,24.8,14.93,34.92,20.6s20.19,10,30.94,15.74c22,11.66,47.69,21.78,71.45,30.35,14.29,5.15,36.85,6.54,51.62,6,4.33-.15,8.64-.7,13-1,14.42-1.16,17.94-2.16,22.86-15.78,3.23-9,3.16-21.24,4.8-29.17,1.33-6.45-1.73-8.09.41-17Z" style="fill:#d40000;fill-rule:evenodd"/><path id="path3237" d="M633.81,580.48c2.76-13.31,12.47-36.71,12.93-54.82.52-21.21,5.91-36.15,3.43-57.15-1.7-14.39-1.22-28.63-4.43-41.65-3-12.2-6.18-23.76-8.65-36.31-2.25-11.44-9.23-28.09-18.21-35.18-10.72-8.45-27-12-37.75-15.9-11.13-4-35.41,4.71-47.16,7-11.44,2.25-19.56,11.87-21.65,21.95-2.2,10.61.1,24.08,2.57,34.11,2.31,9.38,4.42,14.33,4.2,23.26-.49,20.16,2.42,12.32-21.88,3.55-3.73-1.34-7.67-2-11.51-3-9.47-2.48-17.34-.43-27.22-.67-10.47-.25-24.13,9.66-33.72,14.17-11.57,5.43-11.86,11.49-12.08,20.81-.36,14.81,2.13,28.08,5.07,43,2.67,13.53,13.87,25.76,21.62,35.27,9.21,11.29,25.68,17.27,39,22.06,14.8,5.33,27.5,11.7,43.26,13.3,10.77,1.12,20.64,7.32,30.47,7.58,10.07.22,18.53,5.37,28.51,3.39,10.46-2,16.3,2.82,27.23.69,10.38-2,15.9,2,26-5.51Z" style="fill:#d40000;fill-rule:evenodd"/><path id="path3221" d="M234.74,302.74c25.16-11.15,55.14-7.8,78.87,5.4,21.65,12.29,41.25,29.88,51.7,52.85,10.61,23.15,13.74,49.09,12.6,74.33-2.23,34.44-13.84,67.34-26.08,99.32q-3.75,9.57-7.75,19c-1-.31-3.27-.63-2.06-2.15,9.11-24.09,16.58-48.94,21-74.37,5.12-32.82,5-67.26-6.19-98.89a112,112,0,0,0-32.25-47c-13.46-12.53-29.83-23.18-48.44-25.46-22.21-3-46.33,4.93-60.58,22.65-10.92,13.17-15.85,30.3-17,47.14-.83,6.48-4.64,13-11.11,15.18-10.34,4.18-21.71,2.31-32.55,2.36-17.26-.4-35.37.5-50.91,8.83-15.81,8.31-29.48,22.1-34.82,39.42-4.48,15.81-1.36,32.78,4.74,47.71,10.58,25.57,30.5,46,52.41,62.36A211.21,211.21,0,0,0,190.05,584a467.62,467.62,0,0,0,88,18.89,551.27,551.27,0,0,0,68.18,4.38c1.33,1.79-1.35,4-3.12,3-19.24-1.2-38.54-.58-57.8-1.28-34.33-1.13-68.79-5.42-101.63-15.81-25.77-8.11-50.32-20.77-70.76-38.6-22.58-19-41.74-43.13-50.91-71.46-5.44-17.6-6.31-37.6,2.17-54.41,10.2-20,29.52-34.42,50.74-40.95,13.82-4.15,28.4-4.22,42.68-3.53,9.26.19,18.9.62,27.71-2.61,5-3.77,4.68-10.63,5.22-16.23,2.85-21.1,12.94-42.05,30.58-54.62a72.92,72.92,0,0,1,13.63-8Z" style="fill:#280b0b"/><path id="path3223" d="M314,174.89c14.34-6.17,30.77-3.77,44.89,1.78,4.06.63,6.56-3.64,7.18-7.06,7-15.71,24.77-26.64,42-23.57,16.18,2.4,29.67,15.11,34.77,30.4,7.4,18.38,5.78,39.3-1,57.57-1.76,5.11-3.57,10.23-5.71,15.13a149.77,149.77,0,0,0,3.95-46.08c-1.43-14.73-6.39-29.87-17.11-40.48-11.18-10.2-30.49-10.61-41.23.49C376,168.63,373.7,176.7,369,183c-5.27,4.32-12.78,3.1-18.53.49-10.53-3.22-22.5-5.24-32.8-.18-14.27,6.63-21.59,24.22-17.56,39.22,2.48,11.13,10.24,20.29,19.29,26.87,20,16.66,44.2,27.27,68.62,35.67a182.37,182.37,0,0,0,35.09,7.7c-22,1-44.47-1.1-64.84-9.95-21.39-8.7-41.63-21.21-57.16-38.46a46.08,46.08,0,0,1-9.73-41.43c3.1-12,11.2-23,22.71-28Z" style="fill:#280b0b"/><path id="path3231" d="M541,350.62c21.87-9.12,49.29-2.69,64.46,15.64,16.85,18.41,24.93,43.34,26.71,67.89,1.79,24,.33,48.1-2.13,72a453.42,453.42,0,0,1-11.59,61.61c-2.42,1.78-5.13-2.18-3.42-4.22a489.33,489.33,0,0,0,7-110.23c-1.12-22.21-3.78-45-14.09-65.06-6-11.44-14.26-22.5-26.25-28.06-14.14-7-32.25-6.17-44.91,3.59A33.44,33.44,0,0,0,524,386.57c-1.46,10.11.8,20.22,2.35,30.16a9.25,9.25,0,0,1-9.79,9.22c-7.81-.22-15.1-3.57-22.76-4.78-10.58-1.85-21.54-2.74-32.17-.8-9.33,1.74-18.28,6.76-23.44,14.9-9.35,13.66-9.63,32-3.31,47,7,17.07,20,30.75,33.28,43.16,15.19,13.86,32.46,25.64,51.61,33.32,23.49,9.87,48.73,15.26,74.12,17,4.19.44,8.61.49,12.63,1.36.9,2.23-2.16,4.14-4,2.75-30.66-3-62-4.89-91-16.23-26.77-10.31-50.38-28-69.14-49.61-11.53-13.76-20.77-30.58-21.23-48.9-.57-16.22,5-33.4,17.59-44.17,11.7-9.61,27.65-12,42.34-10.54,11.68.88,23.09,3.74,34.49,6.27,2.71-2.23-.32-5.56-.18-8.32-2.55-13.95-2.17-29.45,5.87-41.65A43,43,0,0,1,541,350.62Zm-24.44,66.66" style="fill:#280b0b"/></g><g id="g3247"><path id="path3249" d="M726.3,394.05c-5.95-2.82-25.5-5.59-31.84-6.9-9.05-1.88-14.65-4.59-25-6.74-6.58-1.37-16-9.71-20.74-15.49a84.43,84.43,0,0,1-12.47-19.38l-11-23.42c-4.08-8.67-4.41-14.54-4.2-23.26a36.26,36.26,0,0,1,8-22.28,57.3,57.3,0,0,1,20.83-16.52c9.08-4.26,14.35-1.69,22.61-5.57,4.56-2.15,12.45.3,17,.41,7.85.19,10.35,3,13.78-6.47,3.12-8.65,10.32-12.72,16.78-18,6.21-5.06,12.84-1.09,17,.42,6.25,2.25,9.45,9.26,13.93,15.32,4.34,5.88,8.09,13.64,11.09,20,4.12,8.77,3.91,10.33,5.65,19.21,1.72,8.71-.45,18.41-.58,23.82-.15,6.19,1.43,16.82,2.83,23.9,1.36,6.92-2,18.87-3.34,25.12-2.25,10.88-8.66,25.16-11,33.79-2,7.38-15.52,7-19.21,5.66-1-.35-1.84.86-2.76,1.29C731,400.26,728.76,395.7,726.3,394.05Z" style="fill:#d40000;fill-rule:evenodd"/><path id="path3251" d="M971.27,514.45c-3.34,1.57-34.14-14.79-41.72-20.77-14.71-11.6-31.2-21.55-48.36-27.74-15-5.42-25.23-14.25-38.32-20.69-9.09-4.46-17-16.77-23.24-24.4-6.48-8-10.56-15.31-15-24.89-4.23-9-5.05-16.11-6.88-25.36-1.85-9.44.45-18.2.67-27.23.22-9.24,1.68-16.54,2.69-26.49,1.26-12.39,6.84-22.14,11-33.79,5.64-15.65,17.43-27.55,29.52-37.41,11.07-9,21.75-16.32,33.32-25.75,12.5-10.2,21.2-8.42,32,.1,7.5,5.92,11.59,8.94,18,16.78,5.43,6.66,8.63,14.78,12.38,22.78,4.05,8.6,7.46,12.82,13.2,17.35,8.12,6.39,14.72-9.49,16-16,4-19.45,11.2-34,23.7-49.81,6.92-8.77,20.13-12.83,30.4-17.65,4.28-2,19.48,1.23,26.49,2.69,9.91,2,17.12,2.29,22.93,9.42,6,7.37,10.51,15.2,15,24.88l17.48,37.2c4.2,8.93,8.31,22.53,8.09,31.53-.27,11,3.92,20.86-.1,32-4.19,11.6-4.34,28.62-6.43,40s-5.17,22-7.63,33.87c-5,24.34-13.69,50.61-22.25,74.37-5.16,14.29-18.49,32.53-28.31,43.58-2.88,3.24-6,6.2-9.08,9.31-10.1,10.36-13.12,12.43-26.75,7.52-9-3.24-18.36-11.13-25.51-14.93-5.82-3.09-5.12-6.49-13.36-10.54Z" style="fill:#d40000;fill-rule:evenodd"/><path id="path3253" d="M830.38,733.71c-12-6.37-36.22-13.84-50.46-25.05-16.65-13.13-31.59-18.52-46.17-33.83-10-10.49-21.26-19.21-29.23-30-7.48-10.1-14.35-19.92-22.43-29.83-7.38-9-15.74-25-15.46-36.48.34-13.65,8-28.47,11.86-39.21,4-11.13,26.22-24.25,35.51-31.82,9-7.37,21.62-7.48,30.71-2.66,9.57,5.09,18.48,15.45,24.62,23.76,5.74,7.77,8.21,12.55,15.22,18.08,15.83,12.49,7.94,9.72,16.7-14.57,1.35-3.73,3.36-7.19,5-10.78,4.15-8.88,10.75-13.62,16.87-21.38,6.49-8.23,22.83-12.41,32.42-16.92,11.57-5.43,16.42-1.79,23.74,4,11.63,9.17,20.25,19.57,29.88,31.37,8.72,10.69,11,27.13,13.35,39.15,2.81,14.31-3.1,30.79-7.89,44.08-5.33,14.79-8.54,28.63-17.37,41.79-6,9-7.54,20.56-13.61,28.3-6.26,7.88-7.7,17.68-15.59,24.1-8.24,6.76-8.24,14.35-16.86,21.4-8.2,6.68-8.6,13.52-20.84,16.51Z" style="fill:#d40000;fill-rule:evenodd"/><path id="path3255" d="M871.33,249.23c-24.65,12.25-41.21,37.47-46.2,64.15-4.35,24.52-3.32,50.84,7.69,73.54,11,22.94,29,41.91,49.17,57.14,27.93,20.27,60.67,32.34,93.1,43.33,6.51,2.14,13,4.22,19.61,6.19.39-1,1.6-2.92-.35-3-24.36-8.37-48.25-18.48-70.61-31.35-28.54-17-55-39.11-72.18-67.88A112.07,112.07,0,0,1,836,336.54c-1.06-18.36,1.19-37.76,11.32-53.54,11.83-19.05,33.37-32.52,56.1-32.18,17.12,0,33.44,7.15,47.14,17,5.52,3.5,13,4.75,18.78,1.14,9.82-5.3,15.63-15.24,22.59-23.55,10.71-13.55,23-26.91,39.3-33.55,16.49-6.87,35.83-8.59,52.57-1.64,15,6.63,26.1,19.88,33.7,34.1,12.93,24.46,16,52.87,14.55,80.15a211.7,211.7,0,0,1-15.64,69.89,468.44,468.44,0,0,1-41.64,79.8,549.26,549.26,0,0,1-40.15,55.26c.53,2.18,4,1.54,4.31-.48,11.35-15.58,24.15-30,35.9-45.31,21-27.15,39.74-56.41,52.71-88.32,10.2-25,16.13-52,15.46-79.11-.21-29.49-6.56-59.66-22.51-84.8-10.09-15.42-24.92-28.86-43.28-33.07-21.89-4.9-45.33.76-63.91,12.92-12,8-21.37,19.18-30,30.61-5.76,7.25-11.58,14.94-19.7,19.66-6.1,1.45-11.16-3.18-15.83-6.34-18-11.28-40.62-16.88-61.55-11.33a72.65,72.65,0,0,0-14.88,5.37Z" style="fill:#280b0b"/><path id="path3257" d="M722.29,228.66c-13.9,7.1-22.54,21.28-27.29,35.69-2.1,3.53-7,2.73-10,1-16.55-4.65-36.32,2.06-45,17.31-8.48,14-7.31,32.47,1.21,46.16,9.43,17.43,26.56,29.53,44.93,36,5.06,1.9,10.15,3.77,15.29,5.26a149.78,149.78,0,0,1-38-26.38c-10.44-10.5-18.92-24-20.25-39-.71-15.12,11.31-30.24,26.7-31.42,8-.94,15.68,2.44,23.56,2.8,6.69-1.29,10.55-7.86,12.21-14,4.24-10.16,10.33-20.66,20.8-25.36,14.21-6.75,32.43-1.16,41.4,11.52,7,9,9.08,20.84,8.36,32,.06,26-7.21,51.43-16.34,75.59a182.16,182.16,0,0,1-16.47,31.92c14.77-16.3,27.54-34.93,33.73-56.25,7-22,10.25-45.59,6.88-68.56a46.08,46.08,0,0,0-25.68-33.93c-11.21-5.28-24.85-6.05-36.08-.42Z" style="fill:#280b0b"/><path id="path3259" d="M712.67,515.56c-21,11-33.53,36.22-29.1,59.59C687,599.88,701,622,718.78,639.06c17.32,16.69,36.81,31,56.76,44.29a452.23,452.23,0,0,0,54.82,30.41c2.92-.73,1.59-5.34-1.07-5.33a490.17,490.17,0,0,1-89.35-64.94c-16.37-15-32.23-31.65-41.07-52.38-5-11.89-8.22-25.34-4.85-38.11,3.65-15.34,15.84-28.77,31.44-32.28a33.46,33.46,0,0,1,25.77,4.66c8.71,5.33,15.06,13.52,21.72,21.06a9.24,9.24,0,0,0,13.34-1.65c4.82-6.16,6.89-13.91,10.85-20.58,5.33-9.32,11.64-18.33,19.92-25.27,7.29-6.07,16.87-9.75,26.44-8.53,16.48,1.53,30.77,13,38.25,27.43,8.67,16.29,10.91,35,12,53.17,1,20.54-1,41.35-7.29,61-7.4,24.38-19.36,47.25-34.2,67.93-2.32,3.51-5.11,6.94-7,10.59,1.14,2.12,4.56,1,4.64-1.29,17.29-25.49,35.84-50.87,45.61-80.42,9.15-27.2,10.57-56.68,5.94-84.89-3.23-17.66-10.28-35.51-24.09-47.57-12.12-10.78-28.91-17.44-45.23-14.65-14.86,2.88-26.87,13.63-35.13,25.87-6.78,9.55-11.87,20.16-17.2,30.55-3.44.66-4.08-3.8-6.28-5.45-9.11-10.87-21.29-20.47-35.82-22.06a42.81,42.81,0,0,0-25,4.94Zm66.92,23.73" style="fill:#280b0b"/></g><g id="g3281"><path id="path3265" d="M573.63,271.73c1.41.67,14.5-6.28,17.72-8.82a75,75,0,0,1,20.57-11.8c6.38-2.31,10.71-6.05,16.28-8.79,3.88-1.9,7.23-7.13,9.88-10.37a48.45,48.45,0,0,0,6.41-10.58c1.79-3.83,2.15-6.87,2.92-10.79s-.2-7.74-.29-11.57-.7-7-1.13-11.28c-.55-5.26-2.93-9.4-4.69-14.36-2.41-6.64-7.41-11.72-12.55-15.91-4.72-3.82-9.27-6.93-14.18-10.94-5.31-4.32-9-3.58-13.6,0a39.77,39.77,0,0,0-7.65,7.13c-2.31,2.83-3.67,6.28-5.26,9.68a17.69,17.69,0,0,1-5.62,7.38c-3.44,2.72-6.25-4-6.81-6.77a47.53,47.53,0,0,0-10.09-21.18c-2.94-3.74-8.56-5.46-12.91-7.52-1.81-.84-8.29.54-11.26,1.15-4.21.86-7.29,1-9.76,4A48.6,48.6,0,0,0,525.22,151q-3.74,7.89-7.43,15.81c-1.79,3.78-3.53,9.56-3.44,13.39.11,4.69-1.68,8.88,0,13.61,1.77,4.94,1.84,12.17,2.72,17s2.2,9.33,3.26,14.4c2.13,10.36,5.83,21.52,9.45,31.63,2.2,6.07,7.86,13.82,12,18.5,1.23,1.39,2.56,2.66,3.85,4,4.28,4.42,5.58,5.3,11.38,3.19,3.8-1.36,7.79-4.73,10.85-6.34,2.47-1.31,2.17-2.76,5.68-4.49Z" style="fill:#d40000;fill-rule:evenodd"/><path id="path3269" d="M616.11,159c10.48,5.21,17.51,15.93,19.64,27.28,1.85,10.42,1.4,21.61-3.27,31.26s-12.34,17.8-20.9,24.28c-11.87,8.63-25.81,13.75-39.58,18.44-2.76.91-5.55,1.79-8.34,2.63-.18-.41-.68-1.25.14-1.27a173.13,173.13,0,0,0,30-13.32c12.14-7.23,23.37-16.63,30.69-28.86a47.57,47.57,0,0,0,6.64-23.31c.45-7.82-.5-16.06-4.8-22.77-5.06-8.11-14.21-13.84-23.86-13.68-7.29,0-14.22,3-20,7.23-2.35,1.49-5.52,2-8,.47-4.19-2.24-6.66-6.48-9.6-10-4.56-5.75-9.77-11.44-16.72-14.25s-15.23-3.65-22.34-.7c-6.39,2.83-11.1,8.45-14.34,14.5-5.5,10.4-6.79,22.47-6.18,34.07A89.52,89.52,0,0,0,512,220.69a196.89,196.89,0,0,0,17.69,33.91,237.39,237.39,0,0,0,17.06,23.51c-.23.91-1.68.64-1.81-.22-4.83-6.62-10.29-12.76-15.27-19.26-9-11.53-16.9-24-22.41-37.53a83.81,83.81,0,0,1-6.57-33.64c.07-12.55,2.79-25.38,9.56-36,4.28-6.57,10.61-12.28,18.4-14.07,9.31-2.09,19.28.32,27.18,5.48,5.1,3.4,9.09,8.15,12.73,13,2.45,3.08,4.92,6.34,8.38,8.35,2.59.62,4.74-1.35,6.73-2.69,7.66-4.8,17.26-7.18,26.17-4.83a31.85,31.85,0,0,1,6.32,2.29Z" style="fill:#280b0b"/></g><g id="g3289"><path id="path3263" d="M605.75,748.34c-4.72-2.24-20.14-4.43-25.15-5.48-7.16-1.47-11.58-3.62-19.8-5.31-5.22-1.09-12.68-7.66-16.38-12.25A66.13,66.13,0,0,1,534.56,710c-2.91-6.15-5.81-12.34-8.72-18.49-3.2-6.87-3.5-11.5-3.33-18.41a29,29,0,0,1,6.36-17.61,46.11,46.11,0,0,1,16.47-13.06c7.21-3.37,11.38-1.34,17.91-4.38,3.58-1.72,9.81.21,13.43.3,6.2.17,8.18,2.4,10.87-5.1,2.49-6.82,8.17-10.07,13.27-14.24,4.93-4,10.15-.84,13.48.34,4.93,1.81,7.46,7.33,11,12.13,3.45,4.64,6.4,10.79,8.76,15.84,3.28,6.91,3.11,8.17,4.5,15.17s-.37,14.57-.46,18.83c-.13,4.88,1.1,13.31,2.23,18.91s-1.64,14.91-2.65,19.84c-1.77,8.59-6.87,19.88-8.72,26.71-1.64,5.85-12.26,5.51-15.21,4.46-.76-.25-1.43.72-2.15,1-2.14,1-3.91-2.61-5.85-3.91Z" style="fill:#d40000;fill-rule:evenodd"/><path id="path3271" d="M602.59,617.58c-11,5.61-17.82,16.81-21.57,28.23-1.68,2.78-5.52,2.14-7.92.8-13.1-3.67-28.73,1.64-35.55,13.69-6.7,11-5.77,25.65,1,36.48,7.46,13.77,21,23.33,35.51,28.47,4,1.48,8,3,12.09,4.13a117.51,117.51,0,0,1-30-20.85c-8.25-8.3-15-19-16-30.84-.55-11.92,8.93-23.88,21.1-24.81,6.32-.75,12.39,1.9,18.62,2.19,5.31-1,8.34-6.19,9.65-11,3.37-8,8.17-16.3,16.47-20,11.2-5.35,25.61-.93,32.73,9.1,5.52,7.12,7.16,16.47,6.61,25.27,0,20.6-5.73,40.65-12.93,59.78a147.54,147.54,0,0,1-13,25.23C631,730.52,641.09,715.78,646,698.93c5.47-17.4,8.09-36,5.43-54.18a36.35,36.35,0,0,0-20.3-26.83c-8.85-4.17-19.63-4.8-28.52-.34Z" style="fill:#280b0b"/></g><g id="g3285"><path id="path3267" d="M917.94,191.74c6.83-3.6,20.55-7.83,28.66-14.21,9.43-7.47,17.89-10.49,26.18-19.2,5.68-6,12.06-10.88,16.59-17,4.24-5.71,8.14-11.31,12.73-16.93,4.17-5.11,8.92-14.21,8.77-20.68-.21-7.74-4.54-16.17-6.74-22.25C1001.86,75.13,989.25,67.7,984,63.4a16.1,16.1,0,0,0-17.44-1.51c-5.41,2.87-10.46,8.77-14,13.49-3.23,4.38-4.65,7.1-8.61,10.24-9,7.08-4.51,5.51-9.5-8.28-.75-2.09-1.9-4-2.84-6.11-2.36-5-6.11-7.71-9.58-12.12-3.69-4.66-12.94-7-18.38-9.58-6.56-3.09-9.31-1-13.49,2.23-6.59,5.23-11.48,11.13-17,17.81C868.3,75.65,867,85,865.67,91.79c-1.61,8.1,1.75,17.47,4.47,25,3,8.41,4.84,16.27,9.86,23.73,3.41,5.08,4.26,11.64,7.74,16s4.35,10,8.82,13.69c4.69,3.81,4.69,8.13,9.56,12.13,4.65,3.8,4.89,7.67,11.82,9.37Z" style="fill:#d40000;fill-rule:evenodd"/><path id="path3273" d="M984.75,68c11.88,6.26,19,20.56,16.5,33.83-1.93,14-9.91,26.57-20,36.25-9.82,9.46-20.89,17.56-32.19,25.12A260.73,260.73,0,0,1,918,180.43c-1.67-.42-.91-3,.6-3a278.19,278.19,0,0,0,50.7-36.86c9.28-8.52,18.29-18,23.31-29.71,2.84-6.74,4.65-14.36,2.75-21.62-2.09-8.71-9-16.32-17.84-18.32a19.07,19.07,0,0,0-14.63,2.63c-5,3-8.55,7.68-12.33,12a5.26,5.26,0,0,1-7.56-.93c-2.75-3.51-3.9-7.89-6.17-11.67-3-5.29-6.59-10.4-11.28-14.36-4.14-3.45-9.58-5.54-15-4.84-9.34.88-17.44,7.41-21.71,15.57-4.89,9.25-6.16,19.86-6.77,30.17A97.23,97.23,0,0,0,886.16,134a132.83,132.83,0,0,0,19.38,38.58,69.21,69.21,0,0,1,4,6c-.66,1.21-2.6.57-2.66-.73C897.08,163.41,886.56,149,881,132.24c-5.2-15.45-6-32.17-3.38-48.16,1.84-10,5.83-20.16,13.66-27,6.9-6.14,16.42-9.92,25.67-8.32,8.43,1.63,15.24,7.74,19.92,14.66,3.87,5.45,6.74,11.46,9.77,17.36,2,.36,2.32-2.15,3.56-3.12,5.17-6.13,12.1-11.61,20.32-12.51A24.36,24.36,0,0,1,984.75,68Zm-38,13.48" style="fill:#280b0b"/></g></g></g></svg>